<mxfile host="app.diagrams.net" modified="2024-04-27T09:12:50.380Z" agent="Mozilla/5.0 (Windows NT 10.0; Win64; x64) AppleWebKit/537.36 (KHTML, like Gecko) Chrome/124.0.0.0 Safari/537.36" etag="onKWgz7vB0bTXC4IhdUa" version="24.3.1" type="device">
  <diagram name="Page-1" id="Ja84VL4iM19d3BedXDmQ">
    <mxGraphModel dx="1167" dy="619" grid="1" gridSize="10" guides="1" tooltips="1" connect="1" arrows="1" fold="1" page="1" pageScale="1" pageWidth="827" pageHeight="1169" math="0" shadow="0">
      <root>
        <mxCell id="0" />
        <mxCell id="1" parent="0" />
        <mxCell id="GYUMb1MTlt4WiI59wU2Y-40" style="edgeStyle=orthogonalEdgeStyle;rounded=0;orthogonalLoop=1;jettySize=auto;html=1;entryX=1;entryY=1;entryDx=0;entryDy=0;shape=link;strokeColor=#FF5476;" edge="1" parent="1">
          <mxGeometry relative="1" as="geometry">
            <mxPoint x="570" y="377.4" as="sourcePoint" />
            <mxPoint x="415.6034482758621" y="223.01206896551722" as="targetPoint" />
            <Array as="points">
              <mxPoint x="450" y="377.9" />
              <mxPoint x="450" y="222.9" />
            </Array>
          </mxGeometry>
        </mxCell>
        <mxCell id="GYUMb1MTlt4WiI59wU2Y-42" value="8.Send&amp;nbsp;&lt;div&gt;Response&lt;/div&gt;&lt;div&gt;Action&amp;nbsp;&lt;/div&gt;" style="edgeLabel;html=1;align=center;verticalAlign=middle;resizable=0;points=[];" vertex="1" connectable="0" parent="GYUMb1MTlt4WiI59wU2Y-40">
          <mxGeometry x="-0.2461" relative="1" as="geometry">
            <mxPoint as="offset" />
          </mxGeometry>
        </mxCell>
        <mxCell id="GYUMb1MTlt4WiI59wU2Y-1" value="&lt;div&gt;&lt;div&gt;SOC Analyst&lt;/div&gt;&lt;/div&gt;&lt;div&gt;&lt;br&gt;&lt;/div&gt;" style="fontColor=#0066CC;verticalAlign=top;verticalLabelPosition=bottom;labelPosition=center;align=center;html=1;outlineConnect=0;fillColor=#CCCCCC;strokeColor=#6881B3;gradientColor=none;gradientDirection=north;strokeWidth=2;shape=mxgraph.networks.virtual_pc;" vertex="1" parent="1">
          <mxGeometry x="570" y="330" width="115" height="85" as="geometry" />
        </mxCell>
        <mxCell id="GYUMb1MTlt4WiI59wU2Y-23" style="edgeStyle=orthogonalEdgeStyle;rounded=0;orthogonalLoop=1;jettySize=auto;html=1;shape=link;" edge="1" parent="1" source="GYUMb1MTlt4WiI59wU2Y-3" target="GYUMb1MTlt4WiI59wU2Y-6">
          <mxGeometry relative="1" as="geometry" />
        </mxCell>
        <mxCell id="GYUMb1MTlt4WiI59wU2Y-3" value="Router&lt;div&gt;&lt;br&gt;&lt;/div&gt;" style="sketch=0;points=[[0.5,0,0],[1,0.5,0],[0.5,1,0],[0,0.5,0],[0.145,0.145,0],[0.8555,0.145,0],[0.855,0.8555,0],[0.145,0.855,0]];verticalLabelPosition=bottom;html=1;verticalAlign=top;aspect=fixed;align=center;pointerEvents=1;shape=mxgraph.cisco19.rect;prIcon=router;fillColor=#FAFAFA;strokeColor=#005073;" vertex="1" parent="1">
          <mxGeometry x="372.5" y="320" width="50" height="50" as="geometry" />
        </mxCell>
        <mxCell id="GYUMb1MTlt4WiI59wU2Y-24" style="edgeStyle=orthogonalEdgeStyle;rounded=0;orthogonalLoop=1;jettySize=auto;html=1;entryX=1;entryY=0.5;entryDx=0;entryDy=0;shape=link;fillColor=#f5f5f5;gradientColor=#b3b3b3;strokeColor=#666666;" edge="1" parent="1" source="GYUMb1MTlt4WiI59wU2Y-6" target="GYUMb1MTlt4WiI59wU2Y-9">
          <mxGeometry relative="1" as="geometry" />
        </mxCell>
        <mxCell id="GYUMb1MTlt4WiI59wU2Y-28" value="2. Receive Events" style="edgeLabel;html=1;align=center;verticalAlign=middle;resizable=0;points=[];" vertex="1" connectable="0" parent="GYUMb1MTlt4WiI59wU2Y-24">
          <mxGeometry x="0.042" y="-2" relative="1" as="geometry">
            <mxPoint as="offset" />
          </mxGeometry>
        </mxCell>
        <mxCell id="GYUMb1MTlt4WiI59wU2Y-43" style="edgeStyle=orthogonalEdgeStyle;rounded=0;orthogonalLoop=1;jettySize=auto;html=1;entryX=0;entryY=1;entryDx=0;entryDy=0;shape=link;strokeColor=#FF5476;" edge="1" parent="1" source="GYUMb1MTlt4WiI59wU2Y-6" target="GYUMb1MTlt4WiI59wU2Y-10">
          <mxGeometry relative="1" as="geometry">
            <Array as="points">
              <mxPoint x="379" y="170" />
              <mxPoint x="379" y="170" />
            </Array>
          </mxGeometry>
        </mxCell>
        <mxCell id="GYUMb1MTlt4WiI59wU2Y-6" value="Internet&lt;div&gt;&lt;br&gt;&lt;/div&gt;" style="image;aspect=fixed;perimeter=ellipsePerimeter;html=1;align=center;shadow=0;dashed=0;spacingTop=3;image=img/lib/active_directory/internet_cloud.svg;" vertex="1" parent="1">
          <mxGeometry x="372.5" y="191.5" width="50" height="31.5" as="geometry" />
        </mxCell>
        <mxCell id="GYUMb1MTlt4WiI59wU2Y-7" value="&lt;div&gt;TheHive&lt;/div&gt;&lt;div&gt;&lt;br&gt;&lt;/div&gt;" style="image;aspect=fixed;perimeter=ellipsePerimeter;html=1;align=center;shadow=0;dashed=0;spacingTop=3;image=img/lib/active_directory/internet_cloud.svg;" vertex="1" parent="1">
          <mxGeometry x="590" y="200" width="50" height="31.5" as="geometry" />
        </mxCell>
        <mxCell id="GYUMb1MTlt4WiI59wU2Y-30" style="rounded=0;orthogonalLoop=1;jettySize=auto;html=1;entryX=0;entryY=0.75;entryDx=0;entryDy=0;shape=link;fillColor=#0050ef;strokeColor=#001DBC;" edge="1" parent="1" source="GYUMb1MTlt4WiI59wU2Y-9" target="GYUMb1MTlt4WiI59wU2Y-10">
          <mxGeometry relative="1" as="geometry">
            <mxPoint x="350" y="50" as="targetPoint" />
          </mxGeometry>
        </mxCell>
        <mxCell id="GYUMb1MTlt4WiI59wU2Y-31" value="3.Send Alerts" style="edgeLabel;html=1;align=center;verticalAlign=middle;resizable=0;points=[];" vertex="1" connectable="0" parent="GYUMb1MTlt4WiI59wU2Y-30">
          <mxGeometry x="-0.1319" y="-2" relative="1" as="geometry">
            <mxPoint as="offset" />
          </mxGeometry>
        </mxCell>
        <mxCell id="GYUMb1MTlt4WiI59wU2Y-46" style="edgeStyle=orthogonalEdgeStyle;rounded=0;orthogonalLoop=1;jettySize=auto;html=1;entryX=0;entryY=0.5;entryDx=0;entryDy=0;entryPerimeter=0;shape=link;strokeColor=#FF5476;" edge="1" parent="1" source="GYUMb1MTlt4WiI59wU2Y-9" target="GYUMb1MTlt4WiI59wU2Y-16">
          <mxGeometry relative="1" as="geometry">
            <mxPoint x="145" y="530" as="targetPoint" />
            <Array as="points">
              <mxPoint x="220" y="220" />
              <mxPoint x="220" y="501" />
            </Array>
          </mxGeometry>
        </mxCell>
        <mxCell id="GYUMb1MTlt4WiI59wU2Y-47" value="8.perform Responsive Action" style="edgeLabel;html=1;align=center;verticalAlign=middle;resizable=0;points=[];" vertex="1" connectable="0" parent="GYUMb1MTlt4WiI59wU2Y-46">
          <mxGeometry x="-0.1323" relative="1" as="geometry">
            <mxPoint as="offset" />
          </mxGeometry>
        </mxCell>
        <mxCell id="GYUMb1MTlt4WiI59wU2Y-9" value="&lt;div&gt;Wazuh Manager&lt;/div&gt;" style="image;aspect=fixed;perimeter=ellipsePerimeter;html=1;align=center;shadow=0;dashed=0;spacingTop=3;image=img/lib/active_directory/internet_cloud.svg;" vertex="1" parent="1">
          <mxGeometry x="120" y="191.5" width="50" height="31.5" as="geometry" />
        </mxCell>
        <mxCell id="GYUMb1MTlt4WiI59wU2Y-32" style="edgeStyle=orthogonalEdgeStyle;rounded=0;orthogonalLoop=1;jettySize=auto;html=1;entryX=0.5;entryY=0;entryDx=0;entryDy=0;shape=link;fillColor=#60a917;strokeColor=#45c322;" edge="1" parent="1" source="GYUMb1MTlt4WiI59wU2Y-10" target="GYUMb1MTlt4WiI59wU2Y-6">
          <mxGeometry relative="1" as="geometry" />
        </mxCell>
        <mxCell id="GYUMb1MTlt4WiI59wU2Y-33" value="4.Enrich IOCS" style="edgeLabel;html=1;align=center;verticalAlign=middle;resizable=0;points=[];" vertex="1" connectable="0" parent="GYUMb1MTlt4WiI59wU2Y-32">
          <mxGeometry x="0.1473" relative="1" as="geometry">
            <mxPoint as="offset" />
          </mxGeometry>
        </mxCell>
        <mxCell id="GYUMb1MTlt4WiI59wU2Y-34" style="rounded=0;orthogonalLoop=1;jettySize=auto;html=1;entryX=0.168;entryY=-0.146;entryDx=0;entryDy=0;entryPerimeter=0;shape=link;fillColor=#0050ef;strokeColor=#001DBC;" edge="1" parent="1" source="GYUMb1MTlt4WiI59wU2Y-10" target="GYUMb1MTlt4WiI59wU2Y-7">
          <mxGeometry relative="1" as="geometry">
            <mxPoint x="540" y="190" as="targetPoint" />
          </mxGeometry>
        </mxCell>
        <mxCell id="GYUMb1MTlt4WiI59wU2Y-35" value="5. Send Alerts" style="edgeLabel;html=1;align=center;verticalAlign=middle;resizable=0;points=[];" vertex="1" connectable="0" parent="GYUMb1MTlt4WiI59wU2Y-34">
          <mxGeometry x="0.0027" y="-1" relative="1" as="geometry">
            <mxPoint as="offset" />
          </mxGeometry>
        </mxCell>
        <mxCell id="GYUMb1MTlt4WiI59wU2Y-36" style="rounded=0;orthogonalLoop=1;jettySize=auto;html=1;entryX=1;entryY=0.5;entryDx=0;entryDy=0;shape=link;edgeStyle=orthogonalEdgeStyle;fillColor=#fad7ac;strokeColor=#FFB570;" edge="1" parent="1" source="GYUMb1MTlt4WiI59wU2Y-10" target="GYUMb1MTlt4WiI59wU2Y-6">
          <mxGeometry relative="1" as="geometry" />
        </mxCell>
        <mxCell id="GYUMb1MTlt4WiI59wU2Y-37" value="6.Send Email" style="edgeLabel;html=1;align=center;verticalAlign=middle;resizable=0;points=[];" vertex="1" connectable="0" parent="GYUMb1MTlt4WiI59wU2Y-36">
          <mxGeometry x="0.3281" y="1" relative="1" as="geometry">
            <mxPoint x="1" as="offset" />
          </mxGeometry>
        </mxCell>
        <mxCell id="GYUMb1MTlt4WiI59wU2Y-44" style="edgeStyle=orthogonalEdgeStyle;rounded=0;orthogonalLoop=1;jettySize=auto;html=1;entryX=0.25;entryY=0;entryDx=0;entryDy=0;shape=link;strokeColor=#FF5476;" edge="1" parent="1" source="GYUMb1MTlt4WiI59wU2Y-10" target="GYUMb1MTlt4WiI59wU2Y-9">
          <mxGeometry relative="1" as="geometry" />
        </mxCell>
        <mxCell id="GYUMb1MTlt4WiI59wU2Y-45" value="8.Send Response Action" style="edgeLabel;html=1;align=center;verticalAlign=middle;resizable=0;points=[];" vertex="1" connectable="0" parent="GYUMb1MTlt4WiI59wU2Y-44">
          <mxGeometry x="0.5369" y="-2" relative="1" as="geometry">
            <mxPoint as="offset" />
          </mxGeometry>
        </mxCell>
        <mxCell id="GYUMb1MTlt4WiI59wU2Y-10" value="&lt;div&gt;Shuffle&lt;/div&gt;&lt;div&gt;&lt;br&gt;&lt;/div&gt;" style="image;aspect=fixed;perimeter=ellipsePerimeter;html=1;align=center;shadow=0;dashed=0;spacingTop=3;image=img/lib/active_directory/internet_cloud.svg;" vertex="1" parent="1">
          <mxGeometry x="372.5" y="50" width="50" height="31.5" as="geometry" />
        </mxCell>
        <mxCell id="GYUMb1MTlt4WiI59wU2Y-21" value="" style="edgeStyle=orthogonalEdgeStyle;rounded=0;orthogonalLoop=1;jettySize=auto;html=1;shape=link;fillColor=#f5f5f5;gradientColor=#b3b3b3;strokeColor=#666666;" edge="1" parent="1" source="GYUMb1MTlt4WiI59wU2Y-16" target="GYUMb1MTlt4WiI59wU2Y-3">
          <mxGeometry relative="1" as="geometry" />
        </mxCell>
        <mxCell id="GYUMb1MTlt4WiI59wU2Y-29" value="1. Send Events" style="edgeLabel;html=1;align=center;verticalAlign=middle;resizable=0;points=[];" vertex="1" connectable="0" parent="GYUMb1MTlt4WiI59wU2Y-21">
          <mxGeometry x="0.0409" y="3" relative="1" as="geometry">
            <mxPoint x="1" as="offset" />
          </mxGeometry>
        </mxCell>
        <mxCell id="GYUMb1MTlt4WiI59wU2Y-16" value="Windows 10 C&lt;span style=&quot;background-color: initial;&quot;&gt;lient&lt;/span&gt;&lt;div&gt;&lt;div&gt;Wazuh Agent&lt;/div&gt;&lt;div&gt;&lt;br&gt;&lt;/div&gt;&lt;/div&gt;" style="fontColor=#0066CC;verticalAlign=top;verticalLabelPosition=bottom;labelPosition=center;align=center;html=1;outlineConnect=0;fillColor=#CCCCCC;strokeColor=#6881B3;gradientColor=none;gradientDirection=north;strokeWidth=2;shape=mxgraph.networks.virtual_pc;" vertex="1" parent="1">
          <mxGeometry x="340" y="458" width="115" height="85" as="geometry" />
        </mxCell>
        <mxCell id="GYUMb1MTlt4WiI59wU2Y-38" style="edgeStyle=orthogonalEdgeStyle;rounded=0;orthogonalLoop=1;jettySize=auto;html=1;entryX=0;entryY=0.5;entryDx=0;entryDy=0;entryPerimeter=0;fillColor=#fad7ac;strokeColor=#FFB570;shape=link;" edge="1" parent="1" source="GYUMb1MTlt4WiI59wU2Y-6" target="GYUMb1MTlt4WiI59wU2Y-1">
          <mxGeometry relative="1" as="geometry">
            <Array as="points">
              <mxPoint x="496" y="210" />
              <mxPoint x="496" y="373" />
            </Array>
          </mxGeometry>
        </mxCell>
        <mxCell id="GYUMb1MTlt4WiI59wU2Y-39" value="7.Send &amp;amp; Receive Email&lt;div&gt;&lt;br&gt;&lt;/div&gt;" style="edgeLabel;html=1;align=center;verticalAlign=middle;resizable=0;points=[];" vertex="1" connectable="0" parent="GYUMb1MTlt4WiI59wU2Y-38">
          <mxGeometry x="-0.0297" y="2" relative="1" as="geometry">
            <mxPoint as="offset" />
          </mxGeometry>
        </mxCell>
        <mxCell id="GYUMb1MTlt4WiI59wU2Y-48" value="Window !0&lt;div&gt;Send Events&lt;/div&gt;" style="text;html=1;align=center;verticalAlign=middle;resizable=0;points=[];autosize=1;strokeColor=none;fillColor=none;" vertex="1" parent="1">
          <mxGeometry x="5" y="643" width="90" height="40" as="geometry" />
        </mxCell>
        <mxCell id="GYUMb1MTlt4WiI59wU2Y-65" value="" style="edgeStyle=orthogonalEdgeStyle;rounded=0;orthogonalLoop=1;jettySize=auto;html=1;" edge="1" parent="1" source="GYUMb1MTlt4WiI59wU2Y-55" target="GYUMb1MTlt4WiI59wU2Y-60">
          <mxGeometry relative="1" as="geometry">
            <mxPoint x="500" y="663" as="targetPoint" />
            <mxPoint x="414" y="663" as="sourcePoint" />
          </mxGeometry>
        </mxCell>
        <mxCell id="GYUMb1MTlt4WiI59wU2Y-69" style="edgeStyle=orthogonalEdgeStyle;rounded=0;orthogonalLoop=1;jettySize=auto;html=1;" edge="1" parent="1" source="GYUMb1MTlt4WiI59wU2Y-60">
          <mxGeometry relative="1" as="geometry">
            <mxPoint x="720" y="663" as="targetPoint" />
          </mxGeometry>
        </mxCell>
        <mxCell id="GYUMb1MTlt4WiI59wU2Y-60" value="Shuffle&lt;div&gt;Receive Wazuh alerts &amp;amp; Send&amp;nbsp; responsive actions&amp;nbsp;&lt;/div&gt;" style="text;html=1;align=center;verticalAlign=middle;resizable=0;points=[];autosize=1;strokeColor=none;fillColor=none;" vertex="1" parent="1">
          <mxGeometry x="400" y="643" width="290" height="40" as="geometry" />
        </mxCell>
        <mxCell id="GYUMb1MTlt4WiI59wU2Y-66" value="" style="edgeStyle=orthogonalEdgeStyle;rounded=0;orthogonalLoop=1;jettySize=auto;html=1;" edge="1" parent="1" source="GYUMb1MTlt4WiI59wU2Y-48" target="GYUMb1MTlt4WiI59wU2Y-55">
          <mxGeometry relative="1" as="geometry">
            <mxPoint x="170" y="663" as="targetPoint" />
            <mxPoint x="95" y="663" as="sourcePoint" />
          </mxGeometry>
        </mxCell>
        <mxCell id="GYUMb1MTlt4WiI59wU2Y-55" value="Wazuh Manager&lt;div&gt;Trigger alerts &amp;amp; Send responsive actions&lt;/div&gt;" style="text;html=1;align=center;verticalAlign=middle;resizable=0;points=[];autosize=1;strokeColor=none;fillColor=none;" vertex="1" parent="1">
          <mxGeometry x="120" y="643" width="240" height="40" as="geometry" />
        </mxCell>
        <mxCell id="GYUMb1MTlt4WiI59wU2Y-70" value="OSINT&lt;div&gt;Enrich IOCS&lt;/div&gt;" style="text;html=1;align=center;verticalAlign=middle;resizable=0;points=[];autosize=1;strokeColor=none;fillColor=none;" vertex="1" parent="1">
          <mxGeometry x="500" y="553" width="90" height="40" as="geometry" />
        </mxCell>
        <mxCell id="GYUMb1MTlt4WiI59wU2Y-71" value="TheHive&lt;div&gt;Create alert in case management&lt;/div&gt;" style="text;html=1;align=center;verticalAlign=middle;resizable=0;points=[];autosize=1;strokeColor=none;fillColor=none;" vertex="1" parent="1">
          <mxGeometry x="435" y="740" width="200" height="40" as="geometry" />
        </mxCell>
        <mxCell id="GYUMb1MTlt4WiI59wU2Y-73" style="edgeStyle=orthogonalEdgeStyle;rounded=0;orthogonalLoop=1;jettySize=auto;html=1;entryX=0.51;entryY=1.067;entryDx=0;entryDy=0;entryPerimeter=0;" edge="1" parent="1" source="GYUMb1MTlt4WiI59wU2Y-60" target="GYUMb1MTlt4WiI59wU2Y-70">
          <mxGeometry relative="1" as="geometry" />
        </mxCell>
        <mxCell id="GYUMb1MTlt4WiI59wU2Y-74" style="edgeStyle=orthogonalEdgeStyle;rounded=0;orthogonalLoop=1;jettySize=auto;html=1;entryX=0.554;entryY=-0.119;entryDx=0;entryDy=0;entryPerimeter=0;" edge="1" parent="1" source="GYUMb1MTlt4WiI59wU2Y-60" target="GYUMb1MTlt4WiI59wU2Y-71">
          <mxGeometry relative="1" as="geometry" />
        </mxCell>
        <mxCell id="GYUMb1MTlt4WiI59wU2Y-76" value="Email&lt;div&gt;Send Email &amp;amp;&amp;nbsp;&lt;/div&gt;&lt;div&gt;Responsive actions&amp;nbsp;&amp;nbsp;&lt;/div&gt;" style="text;html=1;align=center;verticalAlign=middle;resizable=0;points=[];autosize=1;strokeColor=none;fillColor=none;" vertex="1" parent="1">
          <mxGeometry x="697" y="650" width="130" height="60" as="geometry" />
        </mxCell>
      </root>
    </mxGraphModel>
  </diagram>
</mxfile>
